<svg id="kity_svg_6" xmlns="http://www.w3.org/2000/svg" xmlns:xlink="http://www.w3.org/1999/xlink" version="1.1" width="604" height="265" style="background: rgb(251, 251, 251); visibility: visible;" viewBox="0 0 604 265"><defs id="kity_defs_7"><linearGradient id="kity_linearGradient_17" x1="0" y1="0" x2="0" y2="1"><stop id="kity_stop_18" offset="0" stop-color="rgb(255, 255, 255)"></stop><stop id="kity_stop_19" offset="1" stop-color="rgb(204, 204, 204)"></stop></linearGradient><marker id="kity_marker_2" orient="auto" refX="6" refY="0" viewBox="-7 -7 14 14" markerWidth="7" markerHeight="7" markerUnits="userSpaceOnUse"><path id="kity_path_3" fill="rgb(115, 161, 191)" stroke="none" d="M6,0A6,6,0,1,1,-6,0A6,6,0,1,1,6,0"></path></marker></defs><g id="kity_g_8"><g id="minder1" text-rendering="optimize-speed"><g id="minder_connect_group1"><path id="kity_path_31" fill="none" stroke="rgb(115, 161, 191)" stroke-width="1" d="M304.49998856385554,61.49999655087793v30h0.5V111.49999655087794"></path><path id="kity_path_33" fill="none" stroke="rgb(115, 161, 191)" stroke-width="1" d="M305.49998856385554,137.49999655087794v20h-254.5V172.49999655087794"></path><path id="kity_path_35" fill="none" stroke="rgb(115, 161, 191)" stroke-width="1" d="M305.49998856385554,137.49999655087794v20h-120V172.49999655087794"></path><path id="kity_path_37" fill="none" stroke="rgb(115, 161, 191)" stroke-width="1" d="M305.49998856385554,137.49999655087794v20h45V172.49999655087794"></path><path id="kity_path_39" fill="none" stroke="rgb(115, 161, 191)" stroke-width="1" d="M305.49998856385554,137.49999655087794v20h213V172.49999655087794"></path><path id="kity_path_71" fill="none" stroke="rgb(115, 161, 191)" stroke-width="1" d="M50.49998856385554,194.49999655087794v15h0.5V224.49999655087794"></path><path id="kity_path_79" fill="none" stroke="rgb(115, 161, 191)" stroke-width="1" d="M185.49998856385554,194.49999655087794v15h0V224.49999655087794"></path><path id="kity_path_87" fill="none" stroke="rgb(115, 161, 191)" stroke-width="1" d="M350.49998856385554,194.49999655087794v15h0V224.49999655087794"></path><path id="kity_path_95" fill="none" stroke="rgb(115, 161, 191)" stroke-width="1" d="M518.4999885638556,194.49999655087794v15h0V224.49999655087794"></path></g><g id="minder_node1"><path id="node_outline1" fill="rgb(115, 161, 191)" stroke="rgb(115, 161, 191)" d="M200.49998856385554,21.49999655087793h208a5,5,0,0,1,5,5v30a5,5,0,0,1,-5,5h-208a5,5,0,0,1,-5,-5v-30a5,5,0,0,1,5,-5z" stroke-width="3"></path><g id="node_text1" fill="white"><text id="kity_text_22" text-rendering="inherit" font-size="16" dy=".8em" y="31.099996512730968" x="219.49998856385554">request通过下载中间件</text></g></g><g id="kity_g_12"><path id="kity_path_13" fill="none" stroke="none" d="M219.49998856385554,41.499996550877924h0v0h0z"></path></g><g id="kity_g_14"><path id="kity_path_15" fill="none" stroke="none" d="M219.49998856385554,41.499996550877924h0v0h0z"></path><path id="kity_path_16" fill="none" stroke="none"></path></g><g id="minder_node2"><g id="node_expander5" style="cursor: pointer;"><path id="kity_path_68" fill="white" stroke="gray" d="M310.99999141295746,104.4999983469645A6,6,0,1,1,298.99999141295746,104.4999983469645A6,6,0,1,1,310.99999141295746,104.4999983469645"></path><path id="kity_path_69" fill="none" stroke="gray" d="M300.49999141295746,104.4999983469645L309.49999141295746,104.4999983469645"></path></g><path id="node_outline6" fill="rgb(238, 243, 246)" stroke="rgb(115, 161, 191)" d="M229.49998899300897,111.49999787012733h151a3,3,0,0,1,3,3v20a3,3,0,0,1,-3,3h-151a3,3,0,0,1,-3,-3v-20a3,3,0,0,1,3,-3z" stroke-width="1"></path><g id="node_text6" fill="black"><text id="kity_text_49" text-rendering="inherit" font-size="14" dy=".8em" y="115.39999793608982" x="246.49998899300897">process_request()</text></g></g><g id="minder_node3"><g id="node_expander1" style="cursor: pointer;"><path id="kity_path_56" fill="white" stroke="gray" d="M56.499985877673026,166.4999979416529A6,6,0,1,1,44.499985877673026,166.4999979416529A6,6,0,1,1,56.499985877673026,166.4999979416529"></path><path id="kity_path_57" fill="none" stroke="gray" d="M45.999985877673026,166.4999979416529L54.999985877673026,166.4999979416529"></path></g><path id="node_outline2" fill="none" stroke="none" d="M29.49998562335989,172.49999880790705h42a5,5,0,0,1,5,5v12a5,5,0,0,1,-5,5h-42a5,5,0,0,1,-5,-5v-12a5,5,0,0,1,5,-5z" stroke-width="3"></path><g id="node_text2" fill="black"><text id="kity_text_41" text-rendering="inherit" font-size="12" dy=".8em" y="175.69999877929683" x="34.49998562335989">None</text></g></g><g id="minder_node4"><g id="node_expander2" style="cursor: pointer;"><path id="kity_path_59" fill="white" stroke="gray" d="M190.99998692274104,166.4999979416529A6,6,0,1,1,178.99998692274104,166.4999979416529A6,6,0,1,1,190.99998692274104,166.4999979416529"></path><path id="kity_path_60" fill="none" stroke="gray" d="M180.49998692274104,166.4999979416529L189.49998692274104,166.4999979416529"></path></g><path id="node_outline3" fill="none" stroke="none" d="M152.49998757839214,172.49999880790705h65a5,5,0,0,1,5,5v12a5,5,0,0,1,-5,5h-65a5,5,0,0,1,-5,-5v-12a5,5,0,0,1,5,-5z" stroke-width="3"></path><g id="node_text3" fill="black"><text id="kity_text_43" text-rendering="inherit" font-size="12" dy=".8em" y="175.69999877929683" x="157.49998757839214">Response</text></g></g><g id="minder_node5"><g id="node_expander3" style="cursor: pointer;"><path id="kity_path_62" fill="white" stroke="gray" d="M355.99999034007385,166.4999979416529A6,6,0,1,1,343.99999034007385,166.4999979416529A6,6,0,1,1,355.99999034007385,166.4999979416529"></path><path id="kity_path_63" fill="none" stroke="gray" d="M345.49999034007385,166.4999979416529L354.49999034007385,166.4999979416529"></path></g><path id="node_outline4" fill="none" stroke="none" d="M321.49999026457465,172.49999880790705h57a5,5,0,0,1,5,5v12a5,5,0,0,1,-5,5h-57a5,5,0,0,1,-5,-5v-12a5,5,0,0,1,5,-5z" stroke-width="3"></path><g id="node_text4" fill="black"><text id="kity_text_45" text-rendering="inherit" font-size="12" dy=".8em" y="175.69999877929683" x="326.49999026457465">Request</text></g></g><g id="minder_node6"><g id="node_expander4" style="cursor: pointer;"><path id="kity_path_65" fill="white" stroke="gray" d="M523.9999910235404,166.4999979416529A6,6,0,1,1,511.99999102354036,166.4999979416529A6,6,0,1,1,523.9999910235404,166.4999979416529"></path><path id="kity_path_66" fill="none" stroke="gray" d="M513.4999910235404,166.4999979416529L522.4999910235404,166.4999979416529"></path></g><path id="node_outline5" fill="none" stroke="none" d="M455.4999923944472,172.49999880790705h125a5,5,0,0,1,5,5v12a5,5,0,0,1,-5,5h-125a5,5,0,0,1,-5,-5v-12a5,5,0,0,1,5,-5z" stroke-width="3"></path><g id="node_text5" fill="black"><text id="kity_text_47" text-rendering="inherit" font-size="12" dy=".8em" y="175.69999877929683" x="460.4999923944472">raise&#xa0;IgnoreRequest</text></g></g><g id="minder_node7"><g id="node_expander6" style="cursor: pointer;" display="none"><path id="kity_path_76" fill="white" stroke="gray" d="M56.99998638232566,218.4999987681706A6,6,0,1,1,44.99998638232566,218.4999987681706A6,6,0,1,1,56.99998638232566,218.4999987681706"></path><path id="kity_path_77" fill="none" stroke="gray"></path></g><path id="node_outline7" fill="none" stroke="none" d="M26.499985575676163,224.49999963442474h49a5,5,0,0,1,5,5v12a5,5,0,0,1,-5,5h-49a5,5,0,0,1,-5,-5v-12a5,5,0,0,1,5,-5z" stroke-width="3"></path><g id="node_text7" fill="black"><text id="kity_text_73" text-rendering="inherit" font-size="12" dy=".8em" y="227.69999960581453" x="31.499985575676163">Scrapy</text></g></g><g id="minder_node8"><g id="node_expander7" style="cursor: pointer;" display="none"><path id="kity_path_84" fill="white" stroke="gray" d="M190.9999871214232,218.4999987681706A6,6,0,1,1,178.9999871214232,218.4999987681706A6,6,0,1,1,190.9999871214232,218.4999987681706"></path><path id="kity_path_85" fill="none" stroke="gray"></path></g><path id="node_outline8" fill="none" stroke="none" d="M125.49998714923873,224.49999963442474h119a5,5,0,0,1,5,5v12a5,5,0,0,1,-5,5h-119a5,5,0,0,1,-5,-5v-12a5,5,0,0,1,5,-5z" stroke-width="3"></path><g id="node_text8" fill="black"><text id="kity_text_81" text-rendering="inherit" font-size="12" dy=".8em" y="227.69999960581453" x="130.49998714923873">process_response()</text></g></g><g id="minder_node9"><g id="node_expander8" style="cursor: pointer;" display="none"><path id="kity_path_92" fill="white" stroke="gray" d="M355.999990538756,218.4999987681706A6,6,0,1,1,343.999990538756,218.4999987681706A6,6,0,1,1,355.999990538756,218.4999987681706"></path><path id="kity_path_93" fill="none" stroke="gray"></path></g><path id="node_outline9" fill="none" stroke="none" d="M294.4999898354212,224.49999963442474h111a5,5,0,0,1,5,5v12a5,5,0,0,1,-5,5h-111a5,5,0,0,1,-5,-5v-12a5,5,0,0,1,5,-5z" stroke-width="3"></path><g id="node_text9" fill="black"><text id="kity_text_89" text-rendering="inherit" font-size="12" dy=".8em" y="227.69999960581453" x="299.4999898354212">process_request() </text></g></g><g id="minder_node10"><g id="node_expander9" style="cursor: pointer;" display="none"><path id="kity_path_100" fill="white" stroke="gray" d="M523.9999936064082,218.4999987681706A6,6,0,1,1,511.9999936064082,218.4999987681706A6,6,0,1,1,523.9999936064082,218.4999987681706"></path><path id="kity_path_101" fill="none" stroke="gray"></path></g><path id="node_outline10" fill="none" stroke="none" d="M456.49999241034175,224.49999963442474h123a5,5,0,0,1,5,5v12a5,5,0,0,1,-5,5h-123a5,5,0,0,1,-5,-5v-12a5,5,0,0,1,5,-5z" stroke-width="3"></path><g id="node_text10" fill="black"><text id="kity_text_97" text-rendering="inherit" font-size="12" dy=".8em" y="227.69999960581453" x="461.49999241034175">process_exception()</text></g></g></g></g></svg>