<svg id="kity_svg_6" xmlns="http://www.w3.org/2000/svg" xmlns:xlink="http://www.w3.org/1999/xlink" version="1.1" width="481" height="322" style="background: rgb(251, 251, 251); visibility: visible;" viewBox="0 0 481 322"><defs id="kity_defs_7"><linearGradient id="kity_linearGradient_17" x1="0" y1="0" x2="0" y2="1"><stop id="kity_stop_18" offset="0" stop-color="rgb(255, 255, 255)"></stop><stop id="kity_stop_19" offset="1" stop-color="rgb(204, 204, 204)"></stop></linearGradient><marker id="kity_marker_2" orient="auto" refX="6" refY="0" viewBox="-7 -7 14 14" markerWidth="7" markerHeight="7" markerUnits="userSpaceOnUse"><path id="kity_path_3" fill="rgb(115, 161, 191)" stroke="none" d="M6,0A6,6,0,1,1,-6,0A6,6,0,1,1,6,0"></path></marker></defs><g id="kity_g_8"><g id="minder1" text-rendering="optimize-speed"><g id="minder_connect_group1"><path id="kity_path_55" fill="none" stroke="rgb(115, 161, 191)" stroke-width="1" d="M250.49999966621374,61.49999980131782v30h0V111.49999980131781"></path><path id="kity_path_57" fill="none" stroke="rgb(115, 161, 191)" stroke-width="1" d="M250.49999966621374,137.4999998013178v20h-131.5V172.4999998013178"></path><path id="kity_path_79" fill="none" stroke="rgb(115, 161, 191)" stroke-width="1" d="M118.49999966621374,194.4999998013178v15h0V224.4999998013178"></path><path id="kity_path_103" fill="none" stroke="rgb(115, 161, 191)" stroke-width="1" d="M250.49999966621374,137.4999998013178v20h109V172.4999998013178"></path><path id="kity_path_111" fill="none" stroke="rgb(115, 161, 191)" stroke-width="1" d="M359.49999966621374,199.4999998013178v15h0V229.4999998013178"></path><path id="kity_path_119" fill="none" stroke="rgb(115, 161, 191)" stroke-width="1" d="M359.49999966621374,251.4999998013178v15h0.5V281.4999998013178"></path></g><g id="minder_node1"><path id="node_outline1" fill="rgb(115, 161, 191)" stroke="rgb(115, 161, 191)" d="M107.49999966621374,21.49999980131782h285a5,5,0,0,1,5,5v30a5,5,0,0,1,-5,5h-285a5,5,0,0,1,-5,-5v-30a5,5,0,0,1,5,-5z" stroke-width="3"></path><g id="node_text1" fill="white"><text id="kity_text_22" text-rendering="inherit" font-size="16" dy=".8em" y="31.09999976317085" x="126.49999966621374">SPIDER_MIDDLEWARES——开关</text></g></g><g id="kity_g_14" display="none"><path id="kity_path_15" fill="none" stroke="none" d="M126.49999966621374,41.49999980131782h0v0h0z"></path><path id="kity_path_16" fill="none" stroke="none"></path></g><g id="minder_node5"><g id="node_expander6" style="cursor: pointer;"><path id="kity_path_76" fill="white" stroke="gray" d="M256.0000055034951,104.50000159740438A6,6,0,1,1,244.0000055034951,104.50000159740438A6,6,0,1,1,256.0000055034951,104.50000159740438"></path><path id="kity_path_77" fill="none" stroke="gray" d="M245.5000055034951,104.50000159740438L254.5000055034951,104.50000159740438"></path></g><path id="node_outline7" fill="rgb(238, 243, 246)" stroke="rgb(115, 161, 191)" d="M74.49999910990377,111.50000112056722h351a3,3,0,0,1,3,3v20a3,3,0,0,1,-3,3h-351a3,3,0,0,1,-3,-3v-20a3,3,0,0,1,3,-3z" stroke-width="1"></path><g id="node_text7" fill="black"><text id="kity_text_65" text-rendering="inherit" font-size="14" dy=".8em" y="115.40000118652969" x="91.49999910990377">process_spider_input(response, spider)——入口</text></g></g><g id="minder_node6"><g id="node_expander5" style="cursor: pointer;"><path id="kity_path_73" fill="white" stroke="gray" d="M124.49999953905717,166.50000119209272A6,6,0,1,1,112.49999953905717,166.50000119209272A6,6,0,1,1,124.49999953905717,166.50000119209272"></path><path id="kity_path_74" fill="none" stroke="gray" d="M113.99999953905717,166.50000119209272L122.99999953905717,166.50000119209272"></path></g><path id="node_outline6" fill="none" stroke="none" d="M97.49999928474404,172.50000205834687h42a5,5,0,0,1,5,5v12a5,5,0,0,1,-5,5h-42a5,5,0,0,1,-5,-5v-12a5,5,0,0,1,5,-5z" stroke-width="3"></path><g id="node_text6" fill="black"><text id="kity_text_63" text-rendering="inherit" font-size="12" dy=".8em" y="175.70000202973665" x="102.49999928474404">None</text></g></g><g id="minder_node8"><g id="node_expander7" style="cursor: pointer;" display="none"><path id="kity_path_84" fill="white" stroke="gray" d="M124.4999973535536,218.50000201861042A6,6,0,1,1,112.4999973535536,218.50000201861042A6,6,0,1,1,124.4999973535536,218.50000201861042"></path><path id="kity_path_85" fill="none" stroke="gray"></path></g><path id="node_outline8" fill="none" stroke="none" d="M26.49999815622951,224.50000288486456h184a5,5,0,0,1,5,5v12a5,5,0,0,1,-5,5h-184a5,5,0,0,1,-5,-5v-12a5,5,0,0,1,5,-5z" stroke-width="3"></path><g id="node_text8" fill="black"><text id="kity_text_81" text-rendering="inherit" font-size="12" dy=".8em" y="227.70000285625434" x="31.49999815622951">Scrapy将会继续处理该response</text></g></g><g id="minder_node11" opacity="1"><g id="node_expander10" style="cursor: pointer;"><path id="kity_path_108" fill="white" stroke="gray" d="M365.0000024676318,166.500001589457A6,6,0,1,1,353.0000024676318,166.500001589457A6,6,0,1,1,365.0000024676318,166.500001589457"></path><path id="kity_path_109" fill="none" stroke="gray" d="M354.5000024676318,166.500001589457L363.5000024676318,166.500001589457"></path></g><path id="node_outline11" fill="none" stroke="none" d="M315.5000027497605,172.500002090136h87a5,5,0,0,1,5,5v17a5,5,0,0,1,-5,5h-87a5,5,0,0,1,-5,-5v-17a5,5,0,0,1,5,-5z" stroke-width="3"></path><g id="node_text11" fill="black"><text id="kity_text_105" text-rendering="inherit" font-size="12" dy=".8em" y="177.70000206152577" x="320.5000027497605">exception</text></g><g id="kity_g_126" style="cursor: pointer;"><path id="kity_path_127" fill="none" stroke="none" d="M384.0000051101043,177.000002090136h12a2,2,0,0,1,2,2v13a2,2,0,0,1,-2,2h-12a2,2,0,0,1,-2,-2v-13a2,2,0,0,1,2,-2z"></path><path id="kity_path_128" fill="black" stroke="none" d="M393.0000050504997,188.00000208616237H387.0000050504997V187.00000208616237h6L393.0000050504997,188.00000208616237L393.0000050504997,188.00000208616237zM393.0000050504997,186.00000208616237H387.0000050504997V185.00000208616237h6V186.00000208616237zM393.0000050504997,184.00000208616237H387.0000050504997V183.00000208616237h6V184.00000208616237zM392.5000050504997,190.00000208616237H386.0000050504997V181.00000208616237h8v7.5M393.0000050504997,191.00000208616237l2,-2V180.00000208616237H385.0000050504997v11"></path></g></g><g id="kity_g_12" display="none"><path id="kity_path_13" fill="none" stroke="rgb(66, 94, 112)" d="M74.49999966621374,111.49999980131781h351a3,3,0,0,1,3,3v20a3,3,0,0,1,-3,3h-351a3,3,0,0,1,-3,-3v-20a3,3,0,0,1,3,-3z" stroke-width="5"></path></g><g id="minder_node12"><g id="node_expander11" style="cursor: pointer;"><path id="kity_path_116" fill="white" stroke="gray" d="M365.0000034610425,223.50000209808329A6,6,0,1,1,353.0000034610425,223.50000209808329A6,6,0,1,1,365.0000034610425,223.50000209808329"></path><path id="kity_path_117" fill="none" stroke="gray" d="M354.5000034610425,223.50000209808329L363.5000034610425,223.50000209808329"></path></g><path id="node_outline12" fill="none" stroke="none" d="M260.50000187555906,229.50000296433743h197a5,5,0,0,1,5,5v12a5,5,0,0,1,-5,5h-197a5,5,0,0,1,-5,-5v-12a5,5,0,0,1,5,-5z" stroke-width="3"></path><g id="node_text12" fill="black"><text id="kity_text_113" text-rendering="inherit" font-size="12" dy=".8em" y="232.70000293572718" x="265.50000187555906">process_spider_output()——出口</text></g></g><g id="minder_node13"><g id="node_expander12" style="cursor: pointer;" display="none"><path id="kity_path_124" fill="white" stroke="gray" d="M365.5000015815094,275.50000292460106A6,6,0,1,1,353.5000015815094,275.50000292460106A6,6,0,1,1,365.5000015815094,275.50000292460106"></path><path id="kity_path_125" fill="none" stroke="gray"></path></g><path id="node_outline13" fill="none" stroke="none" d="M277.50000214576676,281.5000037908552h164a5,5,0,0,1,5,5v12a5,5,0,0,1,-5,5h-164a5,5,0,0,1,-5,-5v-12a5,5,0,0,1,5,-5z" stroke-width="3"></path><g id="node_text13" fill="black"><text id="kity_text_121" text-rendering="inherit" font-size="12" dy=".8em" y="284.700003762245" x="282.50000214576676">process_spider_exception()</text></g></g></g></g></svg>